# xmcd CD database file
# Copyright (C) 1993-1998 Ti Kan
#
# Track frame offsets:
#  150
#  21660
#  41213
#  62765
#  76933
#  86670
#  109358
#  122200
#  136343
#  154123
#  171820
#  185093
#
# Disc length: 2694 seconds
#
# Revision: 1
# Processed by: cddbd v1.4b41PL1 Copyright (c) Steve Scherf et al.
# Submitted via: CDWizzard Release:4.35
#
DISCID=ab0a840c
DTITLE=Yank Rachell and David Morgan - Pig Trader Blues
DYEAR=1900
DGENRE=
TTITLE0=I Love My Woman
TTITLE1=My First Mandolin
TTITLE2=Slammin' Doors In My Face
TTITLE3=Sloppy Drunk
TTITLE4=Jump In C
TTITLE5=Mistreated Blues
TTITLE6=She Caught The Katy
TTITLE7=Yank Rachell Boogie
TTITLE8=Dark Cloud Rising
TTITLE9=I Don't Care How Long You Been Gone
TTITLE10=I Can't Go Down That Road By Myself
TTITLE11=Yellow Yams
EXTD=
EXTT0=
EXTT1=
EXTT2=
EXTT3=
EXTT4=
EXTT5=
EXTT6=
EXTT7=
EXTT8=
EXTT9=
EXTT10=
EXTT11=
PLAYORDER=
